<svg width="17" height="17" viewBox="0 0 17 17" fill="none" xmlns="http://www.w3.org/2000/svg">
<g clip-path="url(#clip0_452_133)">
<path fill-rule="evenodd" clip-rule="evenodd" d="M5.28787 0.755124C6.11875 0.716874 6.38366 0.708374 8.50016 0.708374C10.6167 0.708374 10.8816 0.717582 11.7117 0.755124C12.5419 0.792666 13.1086 0.925124 13.6044 1.11708C14.1236 1.31329 14.5947 1.62 14.9842 2.01667C15.3809 2.40554 15.6869 2.87587 15.8824 3.39579C16.0751 3.89162 16.2068 4.45829 16.2451 5.28704C16.2833 6.11933 16.2918 6.38425 16.2918 8.50004C16.2918 10.6165 16.2826 10.8815 16.2451 11.7123C16.2075 12.5411 16.0751 13.1078 15.8824 13.6036C15.6869 14.1236 15.3804 14.5947 14.9842 14.9841C14.5947 15.3808 14.1236 15.6868 13.6044 15.8823C13.1086 16.075 12.5419 16.2067 11.7132 16.245C10.8816 16.2832 10.6167 16.2917 8.50016 16.2917C6.38366 16.2917 6.11875 16.2825 5.28787 16.245C4.45912 16.2074 3.89246 16.075 3.39662 15.8823C2.87665 15.6868 2.40554 15.3803 2.01608 14.9841C1.61968 14.595 1.31293 14.1241 1.1172 13.6043C0.925246 13.1085 0.793496 12.5418 0.755246 11.713C0.716996 10.8808 0.708496 10.6158 0.708496 8.50004C0.708496 6.38354 0.717704 6.11863 0.755246 5.28846C0.792788 4.45829 0.925246 3.89162 1.1172 3.39579C1.31322 2.87593 1.62021 2.40505 2.01679 2.01596C2.40569 1.61965 2.87633 1.3129 3.39591 1.11708C3.89175 0.925124 4.45841 0.793374 5.28716 0.755124H5.28787ZM11.6487 2.15762C10.827 2.12008 10.5805 2.11229 8.50016 2.11229C6.41979 2.11229 6.17329 2.12008 5.35162 2.15762C4.59158 2.19233 4.17933 2.31912 3.9045 2.42608C3.54112 2.56775 3.28116 2.73562 3.00846 3.00833C2.74995 3.25983 2.551 3.56599 2.4262 3.90437C2.31925 4.17921 2.19245 4.59146 2.15775 5.3515C2.1202 6.17317 2.11241 6.41967 2.11241 8.50004C2.11241 10.5804 2.1202 10.8269 2.15775 11.6486C2.19245 12.4086 2.31925 12.8209 2.4262 13.0957C2.55087 13.4336 2.74991 13.7403 3.00846 13.9918C3.25991 14.2503 3.56662 14.4493 3.9045 14.574C4.17933 14.681 4.59158 14.8078 5.35162 14.8425C6.17329 14.88 6.41908 14.8878 8.50016 14.8878C10.5812 14.8878 10.827 14.88 11.6487 14.8425C12.4087 14.8078 12.821 14.681 13.0958 14.574C13.4592 14.4323 13.7192 14.2645 13.9919 13.9918C14.2504 13.7403 14.4495 13.4336 14.5741 13.0957C14.6811 12.8209 14.8079 12.4086 14.8426 11.6486C14.8801 10.8269 14.8879 10.5804 14.8879 8.50004C14.8879 6.41967 14.8801 6.17317 14.8426 5.3515C14.8079 4.59146 14.6811 4.17921 14.5741 3.90437C14.4325 3.541 14.2646 3.28104 13.9919 3.00833C13.7404 2.74984 13.4342 2.5509 13.0958 2.42608C12.821 2.31912 12.4087 2.19233 11.6487 2.15762ZM7.50496 10.902C8.06076 11.1334 8.67964 11.1646 9.25591 10.9903C9.83217 10.8161 10.3301 10.4472 10.6646 9.94663C10.999 9.44607 11.1494 8.84491 11.0899 8.24582C11.0304 7.64674 10.7647 7.0869 10.3383 6.66192C10.0665 6.39025 9.73777 6.18224 9.3759 6.05285C9.01403 5.92347 8.62797 5.87592 8.24552 5.91364C7.86306 5.95137 7.49373 6.07342 7.16411 6.27101C6.83449 6.4686 6.55277 6.73682 6.33925 7.05635C6.12573 7.37589 5.98571 7.73879 5.92928 8.11893C5.87284 8.49907 5.9014 8.887 6.01288 9.25478C6.12436 9.62257 6.316 9.96106 6.57401 10.2459C6.83201 10.5307 7.14996 10.7548 7.50496 10.902ZM5.66825 5.66813C6.04014 5.29623 6.48164 5.00123 6.96754 4.79996C7.45344 4.5987 7.97423 4.49511 8.50016 4.49511C9.0261 4.49511 9.54689 4.5987 10.0328 4.79996C10.5187 5.00123 10.9602 5.29623 11.3321 5.66813C11.704 6.04002 11.999 6.48152 12.2002 6.96742C12.4015 7.45332 12.5051 7.97411 12.5051 8.50004C12.5051 9.02598 12.4015 9.54676 12.2002 10.0327C11.999 10.5186 11.704 10.9601 11.3321 11.332C10.581 12.083 9.56234 12.505 8.50016 12.505C7.43799 12.505 6.41932 12.083 5.66825 11.332C4.91718 10.5809 4.49523 9.56222 4.49523 8.50004C4.49523 7.43787 4.91718 6.4192 5.66825 5.66813ZM13.3933 5.09154C13.4855 5.00461 13.5593 4.90007 13.6103 4.78411C13.6613 4.66815 13.6886 4.54313 13.6904 4.41645C13.6923 4.28977 13.6687 4.16401 13.621 4.04662C13.5734 3.92922 13.5027 3.82257 13.4131 3.73299C13.3236 3.6434 13.2169 3.5727 13.0995 3.52507C12.9821 3.47745 12.8563 3.45386 12.7297 3.4557C12.603 3.45755 12.478 3.4848 12.362 3.53583C12.2461 3.58686 12.1415 3.66063 12.0546 3.75279C11.8855 3.93202 11.7929 4.17009 11.7965 4.41645C11.8001 4.66281 11.8996 4.89808 12.0738 5.07231C12.248 5.24653 12.4833 5.346 12.7297 5.34959C12.976 5.35318 13.2141 5.26061 13.3933 5.09154Z" fill="white"/>
</g>
<defs>
<clipPath id="clip0_452_133">
<rect width="17" height="17" fill="white"/>
</clipPath>
</defs>
</svg>
