<svg width="17" height="17" viewBox="0 0 17 17" fill="none" xmlns="http://www.w3.org/2000/svg">
<g clip-path="url(#clip0_452_131)">
<path fill-rule="evenodd" clip-rule="evenodd" d="M0.708496 2.01029C0.708496 1.665 0.845662 1.33386 1.08982 1.0897C1.33398 0.845542 1.66512 0.708376 2.01041 0.708376H14.9885C15.1596 0.708096 15.3291 0.74157 15.4873 0.806881C15.6454 0.872192 15.7892 0.968058 15.9102 1.08899C16.0313 1.20992 16.1273 1.35354 16.1928 1.51163C16.2583 1.66972 16.2919 1.83918 16.2918 2.01029V14.9884C16.292 15.1595 16.2585 15.329 16.1931 15.4872C16.1277 15.6454 16.0317 15.7891 15.9108 15.9101C15.7898 16.0312 15.6461 16.1272 15.488 16.1927C15.3298 16.2582 15.1604 16.2918 14.9892 16.2917H2.01041C1.83938 16.2917 1.67003 16.258 1.51203 16.1925C1.35403 16.1271 1.21047 16.0311 1.08957 15.9101C0.968665 15.7892 0.872781 15.6456 0.807395 15.4875C0.74201 15.3295 0.708403 15.1601 0.708496 14.9891V2.01029ZM6.87666 6.64988H8.98679V7.70954C9.29137 7.10038 10.0705 6.55213 11.2414 6.55213C13.4861 6.55213 14.0181 7.7655 14.0181 9.99179V14.1157H11.7465V10.499C11.7465 9.23104 11.4419 8.51563 10.6684 8.51563C9.59525 8.51563 9.149 9.287 9.149 10.499V14.1157H6.87666V6.64988ZM2.98083 14.0187H5.25316V6.55213H2.98083V14.018V14.0187ZM5.57829 4.11688C5.58257 4.31144 5.54795 4.50489 5.47646 4.68589C5.40496 4.86689 5.29804 5.03179 5.16195 5.1709C5.02587 5.31001 4.86337 5.42055 4.68399 5.49601C4.50461 5.57147 4.31196 5.61034 4.11735 5.61034C3.92274 5.61034 3.7301 5.57147 3.55072 5.49601C3.37134 5.42055 3.20883 5.31001 3.07275 5.1709C2.93666 5.03179 2.82974 4.86689 2.75824 4.68589C2.68675 4.50489 2.65213 4.31144 2.65641 4.11688C2.66482 3.73498 2.82244 3.37156 3.0955 3.10445C3.36856 2.83733 3.73536 2.68776 4.11735 2.68776C4.49934 2.68776 4.86614 2.83733 5.1392 3.10445C5.41227 3.37156 5.56988 3.73498 5.57829 4.11688Z" fill="white"/>
</g>
<defs>
<clipPath id="clip0_452_131">
<rect width="17" height="17" fill="white"/>
</clipPath>
</defs>
</svg>
