<svg width="17" height="17" viewBox="0 0 17 17" fill="none" xmlns="http://www.w3.org/2000/svg">
<path d="M0.722912 0.0519435L16.0779 7.61794C16.1616 7.65921 16.2322 7.72308 16.2815 7.80235C16.3308 7.88161 16.3569 7.9731 16.3569 8.06644C16.3569 8.15979 16.3308 8.25127 16.2815 8.33054C16.2322 8.4098 16.1616 8.47368 16.0779 8.51494L0.721912 16.0809C0.635884 16.1232 0.539522 16.1398 0.444302 16.1289C0.349083 16.1179 0.259019 16.0798 0.184836 16.0191C0.110654 15.9585 0.0554802 15.8777 0.0258858 15.7866C-0.00370856 15.6954 -0.00647616 15.5976 0.0179124 15.5049L1.98691 8.07094L0.0169125 0.628943C-0.00787996 0.536058 -0.00536893 0.437995 0.0241451 0.3465C0.0536592 0.255006 0.108925 0.17396 0.183321 0.11307C0.257718 0.0521814 0.348091 0.0140312 0.443615 0.00318978C0.539139 -0.00765164 0.635763 0.00927551 0.721912 0.0519435H0.722912ZM1.26591 1.43494L2.87591 7.51694L2.93791 7.50494L3.00191 7.50094H10.0019C10.1269 7.50071 10.2474 7.54727 10.3397 7.63145C10.432 7.71563 10.4895 7.83133 10.5008 7.95576C10.5121 8.0802 10.4764 8.20435 10.4007 8.30377C10.325 8.4032 10.2149 8.47068 10.0919 8.49294L10.0019 8.50094H3.00191C2.97107 8.50109 2.94027 8.49841 2.90991 8.49294L1.26691 14.6989L14.7249 8.06694L1.26591 1.43494Z" fill="white"/>
</svg>
