<svg width="24" height="25" viewBox="0 0 24 25" fill="none" xmlns="http://www.w3.org/2000/svg">
<path fill-rule="evenodd" clip-rule="evenodd" d="M7.465 1.24373C8.638 1.18973 9.012 1.17773 12 1.17773C14.988 1.17773 15.362 1.19073 16.534 1.24373C17.706 1.29673 18.506 1.48373 19.206 1.75473C19.939 2.03173 20.604 2.46473 21.154 3.02473C21.714 3.57373 22.146 4.23773 22.422 4.97173C22.694 5.67173 22.88 6.47173 22.934 7.64173C22.988 8.81673 23 9.19073 23 12.1777C23 15.1657 22.987 15.5397 22.934 16.7127C22.881 17.8827 22.694 18.6827 22.422 19.3827C22.146 20.1168 21.7133 20.7819 21.154 21.3317C20.604 21.8917 19.939 22.3237 19.206 22.5997C18.506 22.8717 17.706 23.0577 16.536 23.1117C15.362 23.1657 14.988 23.1777 12 23.1777C9.012 23.1777 8.638 23.1647 7.465 23.1117C6.295 23.0587 5.495 22.8717 4.795 22.5997C4.06092 22.3237 3.39582 21.891 2.846 21.3317C2.28638 20.7824 1.85331 20.1176 1.577 19.3837C1.306 18.6837 1.12 17.8837 1.066 16.7137C1.012 15.5387 1 15.1647 1 12.1777C1 9.18973 1.013 8.81573 1.066 7.64373C1.119 6.47173 1.306 5.67173 1.577 4.97173C1.85372 4.23782 2.28712 3.57305 2.847 3.02373C3.39604 2.46424 4.06047 2.03118 4.794 1.75473C5.494 1.48373 6.294 1.29773 7.464 1.24373H7.465ZM16.445 3.22373C15.285 3.17073 14.937 3.15973 12 3.15973C9.063 3.15973 8.715 3.17073 7.555 3.22373C6.482 3.27273 5.9 3.45173 5.512 3.60273C4.999 3.80273 4.632 4.03973 4.247 4.42473C3.88205 4.77979 3.60118 5.21202 3.425 5.68973C3.274 6.07773 3.095 6.65973 3.046 7.73273C2.993 8.89273 2.982 9.24073 2.982 12.1777C2.982 15.1147 2.993 15.4627 3.046 16.6227C3.095 17.6957 3.274 18.2777 3.425 18.6657C3.601 19.1427 3.882 19.5757 4.247 19.9307C4.602 20.2957 5.035 20.5767 5.512 20.7527C5.9 20.9037 6.482 21.0827 7.555 21.1317C8.715 21.1847 9.062 21.1957 12 21.1957C14.938 21.1957 15.285 21.1847 16.445 21.1317C17.518 21.0827 18.1 20.9037 18.488 20.7527C19.001 20.5527 19.368 20.3157 19.753 19.9307C20.118 19.5757 20.399 19.1427 20.575 18.6657C20.726 18.2777 20.905 17.6957 20.954 16.6227C21.007 15.4627 21.018 15.1147 21.018 12.1777C21.018 9.24073 21.007 8.89273 20.954 7.73273C20.905 6.65973 20.726 6.07773 20.575 5.68973C20.375 5.17673 20.138 4.80973 19.753 4.42473C19.3979 4.05981 18.9657 3.77894 18.488 3.60273C18.1 3.45173 17.518 3.27273 16.445 3.22373ZM10.595 15.5687C11.3797 15.8954 12.2534 15.9394 13.0669 15.6935C13.8805 15.4475 14.5834 14.9267 15.0556 14.22C15.5278 13.5133 15.7401 12.6646 15.656 11.8188C15.572 10.9731 15.197 10.1827 14.595 9.58273C14.2112 9.19921 13.7472 8.90555 13.2363 8.72288C12.7255 8.54022 12.1804 8.47309 11.6405 8.52635C11.1006 8.57961 10.5792 8.75191 10.1138 9.03086C9.64845 9.30982 9.25074 9.68848 8.9493 10.1396C8.64786 10.5907 8.45019 11.103 8.37052 11.6397C8.29084 12.1764 8.33115 12.724 8.48854 13.2433C8.64593 13.7625 8.91648 14.2403 9.28072 14.6425C9.64496 15.0446 10.0938 15.3609 10.595 15.5687ZM8.002 8.17973C8.52702 7.65471 9.15032 7.23824 9.8363 6.9541C10.5223 6.66995 11.2575 6.52371 12 6.52371C12.7425 6.52371 13.4777 6.66995 14.1637 6.9541C14.8497 7.23824 15.473 7.65471 15.998 8.17973C16.523 8.70476 16.9395 9.32805 17.2236 10.014C17.5078 10.7 17.654 11.4352 17.654 12.1777C17.654 12.9202 17.5078 13.6555 17.2236 14.3414C16.9395 15.0274 16.523 15.6507 15.998 16.1757C14.9377 17.2361 13.4995 17.8318 12 17.8318C10.5005 17.8318 9.06234 17.2361 8.002 16.1757C6.94166 15.1154 6.34597 13.6773 6.34597 12.1777C6.34597 10.6782 6.94166 9.24007 8.002 8.17973ZM18.908 7.36573C19.0381 7.243 19.1423 7.09542 19.2143 6.93171C19.2863 6.768 19.3248 6.5915 19.3274 6.41266C19.33 6.23383 19.2967 6.05628 19.2295 5.89054C19.1622 5.72481 19.0624 5.57424 18.936 5.44777C18.8095 5.3213 18.6589 5.22149 18.4932 5.15425C18.3275 5.08701 18.1499 5.05371 17.9711 5.05632C17.7922 5.05892 17.6157 5.09739 17.452 5.16943C17.2883 5.24147 17.1407 5.34563 17.018 5.47573C16.7793 5.72876 16.6486 6.06486 16.6537 6.41266C16.6588 6.76047 16.7992 7.09261 17.0452 7.33858C17.2911 7.58454 17.6233 7.72496 17.9711 7.73003C18.3189 7.7351 18.655 7.60442 18.908 7.36573Z" fill="white"/>
</svg>
