<svg width="1428" height="41" viewBox="0 0 1428 41" fill="none" xmlns="http://www.w3.org/2000/svg">
<line y1="-0.5" x2="1428" y2="-0.5" transform="matrix(1 0 0 -1 0 40)" stroke="#BFBFBF"/>
<line y1="-0.5" x2="342" y2="-0.5" transform="matrix(1 0 0 -1 0 40)" stroke="#0099DB"/>
<path d="M524.279 0.826416H536.249C545.657 0.826416 551.999 6.87442 551.999 15.5264C551.999 24.1784 545.657 30.2264 536.249 30.2264H524.279V0.826416ZM527.387 3.51442V27.5384H536.081C543.893 27.5384 548.933 22.5824 548.933 15.5264C548.933 8.47042 543.893 3.51442 536.081 3.51442H527.387ZM559.86 27.7484C561.12 27.7484 562.044 28.7144 562.044 29.9324C562.044 31.0664 561.078 31.9904 559.86 31.9904C558.642 31.9904 557.676 31.0244 557.676 29.8904C557.676 28.7144 558.642 27.7484 559.86 27.7484ZM558.348 0.826416H561.33V22.9184H558.348V0.826416ZM575.55 0.616416C581.304 0.616416 584.664 3.09442 584.664 6.91642C584.664 15.4004 570.342 10.9064 570.342 16.8704C570.342 18.9704 572.106 20.5244 576.096 20.5244C578.364 20.5244 580.674 19.9784 582.606 18.6344L583.908 21.0284C582.06 22.2884 578.952 23.0864 576.096 23.0864C570.468 23.0864 567.36 20.3984 567.36 16.7864C567.36 8.05042 581.682 12.5864 581.682 6.83242C581.682 4.64842 579.96 3.22042 575.76 3.22042C572.652 3.22042 569.67 4.31242 567.906 5.69842L566.562 3.34642C568.368 1.79242 571.896 0.616416 575.55 0.616416ZM599.333 0.616416C603.071 0.616416 606.221 2.12842 607.985 4.98442L605.759 6.49642C604.247 4.27042 601.895 3.26242 599.333 3.26242C594.503 3.26242 590.975 6.66442 590.975 11.8724C590.975 17.0384 594.503 20.4824 599.333 20.4824C601.895 20.4824 604.247 19.4324 605.759 17.2064L607.985 18.7184C606.221 21.6164 603.071 23.0864 599.333 23.0864C592.739 23.0864 587.951 18.4664 587.951 11.8724C587.951 5.27842 592.739 0.616416 599.333 0.616416ZM622.503 0.616416C628.971 0.616416 633.717 5.32042 633.717 11.8724C633.717 18.4244 628.971 23.0864 622.503 23.0864C616.035 23.0864 611.247 18.4244 611.247 11.8724C611.247 5.32042 616.035 0.616416 622.503 0.616416ZM622.503 3.26242C617.799 3.26242 614.271 6.70642 614.271 11.8724C614.271 17.0384 617.799 20.4824 622.503 20.4824C627.207 20.4824 630.693 17.0384 630.693 11.8724C630.693 6.70642 627.207 3.26242 622.503 3.26242ZM654.814 22.9184L646.456 4.10242L638.182 22.9184H635.074L644.86 0.826416H647.926L657.754 22.9184H654.814ZM680.617 11.8724C680.617 18.5084 676.123 23.0864 669.907 23.0864C663.691 23.0864 659.113 18.4244 659.113 11.8724C659.113 5.32042 663.817 0.616416 670.705 0.616416C674.191 0.616416 677.257 1.87642 679.231 4.22842L677.551 6.16042C675.871 4.22842 673.477 3.26242 670.789 3.26242C665.959 3.26242 662.431 6.32842 662.095 10.9484H680.575C680.575 11.2844 680.617 11.6204 680.617 11.8724ZM669.907 20.5244C674.233 20.5244 677.383 17.5004 677.761 13.1744H662.095C662.473 17.5004 665.623 20.5244 669.907 20.5244ZM689.542 18.5924V22.9184H686.686V0.826416H689.668V12.0824C689.668 17.2904 692.482 20.2304 697.102 20.2304C697.312 20.2304 697.564 20.1884 697.816 20.1884V23.0864C693.742 23.0864 690.928 21.5324 689.542 18.5924ZM723.566 0.616416C730.034 0.616416 734.78 5.32042 734.78 11.8724C734.78 18.4244 730.034 23.0864 723.566 23.0864C717.098 23.0864 712.31 18.4244 712.31 11.8724C712.31 5.32042 717.098 0.616416 723.566 0.616416ZM723.566 3.26242C718.862 3.26242 715.334 6.70642 715.334 11.8724C715.334 17.0384 718.862 20.4824 723.566 20.4824C728.27 20.4824 731.756 17.0384 731.756 11.8724C731.756 6.70642 728.27 3.26242 723.566 3.26242ZM757.794 22.9184V11.3264C757.794 6.28642 754.896 3.30442 750.276 3.30442C746.076 3.30442 743.64 5.69842 743.64 10.4024V22.9184H740.658V10.1084C740.658 3.76642 744.354 0.616416 749.982 0.616416C753.51 0.616416 756.366 2.17042 757.92 4.85842V0.826416H760.776V22.9184H757.794ZM771.984 18.5924V22.9184H769.128V0.826416H772.11V12.0824C772.11 17.2904 774.924 20.2304 779.544 20.2304C779.754 20.2304 780.006 20.1884 780.258 20.1884V23.0864C776.184 23.0864 773.37 21.5324 771.984 18.5924ZM809.577 23.7584C806.511 23.7584 803.865 22.7084 802.101 20.7764V23.4224H795.843V0.826416H802.395V11.9984C802.395 16.1564 804.663 18.0884 807.813 18.0884C810.711 18.0884 812.391 16.4084 812.391 12.7544V0.826416H818.943V13.7624C818.943 20.6504 814.911 23.7584 809.577 23.7584ZM847.262 12.0404C847.262 19.3064 842.138 23.7584 835.502 23.7584C828.614 23.7584 823.448 18.8864 823.448 12.1244C823.448 5.40442 828.53 0.490416 836.342 0.490416C840.416 0.490416 843.566 1.75042 845.666 4.14442L842.18 7.92442C840.626 6.45442 838.904 5.74042 836.51 5.74042C833.066 5.74042 830.672 7.46242 830.042 10.2764H847.136C847.178 10.8224 847.262 11.5364 847.262 12.0404ZM835.544 18.8024C838.484 18.8024 840.626 16.9544 841.088 14.0984H829.958C830.42 16.9964 832.562 18.8024 835.544 18.8024ZM881.706 23.4224L876.204 8.13442L870.828 23.4224H865.284L859.74 8.13442L854.406 23.4224H848.232L856.38 0.826416H862.68L867.93 14.8544L873.012 0.826416H879.312L887.502 23.4224H881.706ZM897.822 0.490416C904.584 0.490416 908.49 3.47242 908.49 7.67242C908.49 16.5764 894.84 12.8384 894.84 16.7024C894.84 17.8784 896.1 18.8024 899.04 18.8024C901.098 18.8024 903.324 18.3824 905.55 17.1224L907.734 21.7844C905.592 23.0444 902.148 23.7584 899.04 23.7584C892.446 23.7584 888.582 20.7344 888.582 16.4504C888.582 7.42042 902.232 11.2004 902.232 7.50442C902.232 6.24442 901.098 5.44642 898.074 5.44642C895.302 5.44642 892.236 6.32842 890.22 7.63042L888.036 2.92642C890.136 1.54042 894 0.490416 897.822 0.490416Z" fill="white"/>
<line y1="-0.5" x2="0.134591" y2="-0.5" transform="matrix(-3.47506e-05 1 1 0 714 40.8655)" stroke="white" stroke-opacity="0.5" stroke-dasharray="11 11"/>
<path d="M1243 40.064H1428V40.0057H1243V40.064Z" fill="white"/>
<path d="M1238 40.0183H1254V40H1238V40.0183Z" fill="#0099DB"/>
<path d="M1309.22 27.9235C1311.42 27.9235 1313.05 29.4535 1313.05 31.5435C1313.05 33.6335 1311.42 35.1635 1309.22 35.1635C1307.01 35.1635 1305.39 33.6235 1305.39 31.5435C1305.39 29.4635 1307.01 27.9235 1309.22 27.9235ZM1309.22 29.3035C1307.97 29.3035 1307.03 30.2135 1307.03 31.5435C1307.03 32.8735 1307.97 33.7835 1309.22 33.7835C1310.47 33.7835 1311.41 32.8735 1311.41 31.5435C1311.41 30.2135 1310.47 29.3035 1309.22 29.3035ZM1317.73 27.9235C1319.72 27.9235 1320.9 29.0635 1320.9 31.1235V35.0435H1319.3V31.1835C1319.3 29.8535 1318.73 29.3035 1317.74 29.3035C1316.76 29.3035 1316.18 29.8535 1316.18 31.1835V35.0435H1314.56V31.1235C1314.56 29.0635 1315.74 27.9235 1317.73 27.9235ZM1329.05 28.0435L1327.48 30.2935C1328.39 30.6835 1328.92 31.4535 1328.92 32.5035C1328.92 34.0735 1327.75 35.0435 1325.88 35.0435H1322.85V28.0435H1324.47V29.9935H1325.88H1325.96L1327.31 28.0435H1329.05ZM1327.28 32.5035C1327.28 31.7435 1326.78 31.2835 1325.79 31.2835H1324.47V33.7235H1325.79C1326.78 33.7235 1327.28 33.2735 1327.28 32.5035ZM1338.55 35.0435V30.7935L1335.07 35.0435H1333.73V28.0435H1335.33V32.2935L1338.82 28.0435H1340.15V35.0435H1338.55ZM1343.77 29.3435V30.9635H1347.02V32.2235H1343.77V33.7435H1347.45V35.0435H1342.16V28.0435H1347.58V29.3435H1343.77ZM1358.15 35.0435L1356.52 30.0835L1354.92 35.0435H1353.42L1351.77 30.1235L1350.19 35.0435H1348.51L1350.81 28.0435H1352.54L1354.13 32.7835L1355.67 28.0435H1357.41L1359.7 35.0435H1358.15ZM1363.26 27.9235C1365.26 27.9235 1366.23 28.9235 1366.23 30.0935C1366.23 32.6635 1362.16 31.7735 1362.16 33.0635C1362.16 33.5035 1362.53 33.8635 1363.49 33.8635C1364.11 33.8635 1364.78 33.6835 1365.43 33.3135L1365.93 34.5435C1365.28 34.9535 1364.38 35.1635 1363.5 35.1635C1361.51 35.1635 1360.55 34.1735 1360.55 32.9835C1360.55 30.3835 1364.62 31.2835 1364.62 29.9735C1364.62 29.5435 1364.23 29.2235 1363.27 29.2235C1362.43 29.2235 1361.55 29.5235 1360.96 29.9535L1360.41 28.7335C1361.03 28.2535 1362.15 27.9235 1363.26 27.9235Z" fill="#3D3D3D"/>
</svg>
